<svg xmlns="http://www.w3.org/2000/svg" xmlns:xlink="http://www.w3.org/1999/xlink" width="1080" zoomAndPan="magnify" viewBox="0 0 810 149.999998" height="200" preserveAspectRatio="xMidYMid meet" version="1.0"><defs><g/><clipPath id="35176a476a"><path d="M 37 30 L 100 30 L 100 116 L 37 116 Z M 37 30 " clip-rule="nonzero"/></clipPath><clipPath id="79b8e8cf11"><path d="M 78.414062 25.070312 L 105.78125 41.179688 L 58.707031 121.152344 L 31.339844 105.039062 Z M 78.414062 25.070312 " clip-rule="nonzero"/></clipPath><clipPath id="75c9332bdd"><path d="M 92.097656 33.125 C 95.726562 35.261719 98.359375 38.75 99.414062 42.828125 C 100.472656 46.90625 99.863281 51.234375 97.726562 54.863281 L 66.785156 107.429688 C 64.648438 111.0625 61.15625 113.691406 57.082031 114.75 C 53.003906 115.804688 48.671875 115.199219 45.042969 113.0625 C 41.414062 110.925781 38.78125 107.433594 37.726562 103.355469 C 36.671875 99.28125 37.277344 94.949219 39.414062 91.320312 L 70.355469 38.753906 C 72.492188 35.125 75.984375 32.492188 80.0625 31.4375 C 84.140625 30.378906 88.46875 30.988281 92.097656 33.125 Z M 92.097656 33.125 " clip-rule="nonzero"/></clipPath><clipPath id="c9849efe58"><path d="M 0 0.238281 L 63 0.238281 L 63 85.921875 L 0 85.921875 Z M 0 0.238281 " clip-rule="nonzero"/></clipPath><clipPath id="81392889eb"><path d="M 41.414062 -4.929688 L 68.78125 11.179688 L 21.707031 91.152344 L -5.660156 75.039062 Z M 41.414062 -4.929688 " clip-rule="nonzero"/></clipPath><clipPath id="46d6c2444d"><path d="M 55.097656 3.125 C 58.726562 5.261719 61.359375 8.75 62.414062 12.828125 C 63.472656 16.90625 62.863281 21.234375 60.726562 24.863281 L 29.785156 77.429688 C 27.648438 81.0625 24.15625 83.691406 20.082031 84.75 C 16.003906 85.804688 11.671875 85.199219 8.042969 83.0625 C 4.414062 80.925781 1.78125 77.433594 0.726562 73.355469 C -0.328125 69.28125 0.277344 64.949219 2.414062 61.320312 L 33.355469 8.753906 C 35.492188 5.125 38.984375 2.492188 43.0625 1.4375 C 47.140625 0.378906 51.46875 0.988281 55.097656 3.125 Z M 55.097656 3.125 " clip-rule="nonzero"/></clipPath><clipPath id="8cd832e934"><rect x="0" width="63" y="0" height="86"/></clipPath><clipPath id="904d7a4f06"><path d="M 15 29.890625 L 47.71875 29.890625 L 47.71875 62.613281 L 15 62.613281 Z M 15 29.890625 " clip-rule="nonzero"/></clipPath><clipPath id="544dc226fc"><path d="M 31.359375 29.890625 C 22.324219 29.890625 15 37.214844 15 46.25 C 15 55.285156 22.324219 62.613281 31.359375 62.613281 C 40.394531 62.613281 47.71875 55.285156 47.71875 46.25 C 47.71875 37.214844 40.394531 29.890625 31.359375 29.890625 Z M 31.359375 29.890625 " clip-rule="nonzero"/></clipPath><clipPath id="71f299c660"><path d="M 0 0.890625 L 32.71875 0.890625 L 32.71875 33.613281 L 0 33.613281 Z M 0 0.890625 " clip-rule="nonzero"/></clipPath><clipPath id="e2d024f189"><path d="M 16.359375 0.890625 C 7.324219 0.890625 0 8.214844 0 17.25 C 0 26.285156 7.324219 33.613281 16.359375 33.613281 C 25.394531 33.613281 32.71875 26.285156 32.71875 17.25 C 32.71875 8.214844 25.394531 0.890625 16.359375 0.890625 Z M 16.359375 0.890625 " clip-rule="nonzero"/></clipPath><clipPath id="bc3250eade"><rect x="0" width="33" y="0" height="34"/></clipPath><clipPath id="ab6b5547ff"><path d="M 88.257812 82.609375 L 120.976562 82.609375 L 120.976562 115.328125 L 88.257812 115.328125 Z M 88.257812 82.609375 " clip-rule="nonzero"/></clipPath><clipPath id="8d30f42860"><path d="M 104.617188 82.609375 C 95.582031 82.609375 88.257812 89.933594 88.257812 98.96875 C 88.257812 108.003906 95.582031 115.328125 104.617188 115.328125 C 113.652344 115.328125 120.976562 108.003906 120.976562 98.96875 C 120.976562 89.933594 113.652344 82.609375 104.617188 82.609375 Z M 104.617188 82.609375 " clip-rule="nonzero"/></clipPath><clipPath id="ae881dd3bd"><path d="M 0.257812 0.609375 L 32.976562 0.609375 L 32.976562 33.328125 L 0.257812 33.328125 Z M 0.257812 0.609375 " clip-rule="nonzero"/></clipPath><clipPath id="e48326771a"><path d="M 16.617188 0.609375 C 7.582031 0.609375 0.257812 7.933594 0.257812 16.96875 C 0.257812 26.003906 7.582031 33.328125 16.617188 33.328125 C 25.652344 33.328125 32.976562 26.003906 32.976562 16.96875 C 32.976562 7.933594 25.652344 0.609375 16.617188 0.609375 Z M 16.617188 0.609375 " clip-rule="nonzero"/></clipPath><clipPath id="57a96335f2"><rect x="0" width="33" y="0" height="34"/></clipPath></defs><g clip-path="url(#35176a476a)"><g clip-path="url(#79b8e8cf11)"><g clip-path="url(#75c9332bdd)"><g transform="matrix(1, 0, 0, 1, 37, 30)"><g clip-path="url(#8cd832e934)"><g clip-path="url(#c9849efe58)"><g clip-path="url(#81392889eb)"><g clip-path="url(#46d6c2444d)"><path fill="#61ffe3" d="M 41.414062 -4.929688 L 68.78125 11.179688 L 21.707031 91.152344 L -5.660156 75.039062 Z M 41.414062 -4.929688 " fill-opacity="1" fill-rule="nonzero"/></g></g></g></g></g></g></g></g><g clip-path="url(#904d7a4f06)"><g clip-path="url(#544dc226fc)"><g transform="matrix(1, 0, 0, 1, 15, 29)"><g clip-path="url(#bc3250eade)"><g clip-path="url(#71f299c660)"><g clip-path="url(#e2d024f189)"><path fill="#61ffe3" d="M 0 0.890625 L 32.71875 0.890625 L 32.71875 33.613281 L 0 33.613281 Z M 0 0.890625 " fill-opacity="1" fill-rule="nonzero"/></g></g></g></g></g></g><g clip-path="url(#ab6b5547ff)"><g clip-path="url(#8d30f42860)"><g transform="matrix(1, 0, 0, 1, 88, 82)"><g clip-path="url(#57a96335f2)"><g clip-path="url(#ae881dd3bd)"><g clip-path="url(#e48326771a)"><path fill="#61ffe3" d="M 0.257812 0.609375 L 32.976562 0.609375 L 32.976562 33.328125 L 0.257812 33.328125 Z M 0.257812 0.609375 " fill-opacity="1" fill-rule="nonzero"/></g></g></g></g></g></g><g fill="#ffffff" fill-opacity="1"><g transform="translate(130.824103, 106.553096)"><g><path d="M 3.59375 -26.953125 C 3.59375 -32.316406 4.707031 -37.066406 6.9375 -41.203125 C 9.164062 -45.347656 12.203125 -48.566406 16.046875 -50.859375 C 19.890625 -53.148438 24.171875 -54.296875 28.890625 -54.296875 C 32.390625 -54.296875 35.832031 -53.535156 39.21875 -52.015625 C 42.613281 -50.503906 45.316406 -48.488281 47.328125 -45.96875 L 47.328125 -71.75 L 58.46875 -71.75 L 58.46875 0 L 47.328125 0 L 47.328125 -8.046875 C 45.515625 -5.460938 43.003906 -3.328125 39.796875 -1.640625 C 36.597656 0.0351562 32.929688 0.875 28.796875 0.875 C 24.140625 0.875 19.890625 -0.300781 16.046875 -2.65625 C 12.203125 -5.019531 9.164062 -8.316406 6.9375 -12.546875 C 4.707031 -16.785156 3.59375 -21.585938 3.59375 -26.953125 Z M 47.328125 -26.765625 C 47.328125 -30.453125 46.566406 -33.648438 45.046875 -36.359375 C 43.523438 -39.078125 41.535156 -41.144531 39.078125 -42.5625 C 36.617188 -43.988281 33.96875 -44.703125 31.125 -44.703125 C 28.28125 -44.703125 25.628906 -44.003906 23.171875 -42.609375 C 20.710938 -41.222656 18.722656 -39.1875 17.203125 -36.5 C 15.691406 -33.820312 14.9375 -30.640625 14.9375 -26.953125 C 14.9375 -23.273438 15.691406 -20.046875 17.203125 -17.265625 C 18.722656 -14.484375 20.726562 -12.363281 23.21875 -10.90625 C 25.707031 -9.457031 28.34375 -8.734375 31.125 -8.734375 C 33.96875 -8.734375 36.617188 -9.441406 39.078125 -10.859375 C 41.535156 -12.285156 43.523438 -14.367188 45.046875 -17.109375 C 46.566406 -19.859375 47.328125 -23.078125 47.328125 -26.765625 Z M 47.328125 -26.765625 "/></g></g></g><g fill="#ffffff" fill-opacity="1"><g transform="translate(193.363658, 106.553096)"><g><path d="M 56.234375 -28.03125 C 56.234375 -26.019531 56.109375 -24.207031 55.859375 -22.59375 L 15.03125 -22.59375 C 15.351562 -18.320312 16.9375 -14.894531 19.78125 -12.3125 C 22.625 -9.726562 26.113281 -8.4375 30.25 -8.4375 C 36.195312 -8.4375 40.398438 -10.925781 42.859375 -15.90625 L 54.78125 -15.90625 C 53.164062 -10.988281 50.238281 -6.960938 46 -3.828125 C 41.769531 -0.691406 36.519531 0.875 30.25 0.875 C 25.144531 0.875 20.570312 -0.269531 16.53125 -2.5625 C 12.488281 -4.863281 9.320312 -8.097656 7.03125 -12.265625 C 4.738281 -16.429688 3.59375 -21.265625 3.59375 -26.765625 C 3.59375 -32.253906 4.707031 -37.082031 6.9375 -41.25 C 9.164062 -45.425781 12.300781 -48.644531 16.34375 -50.90625 C 20.382812 -53.164062 25.019531 -54.296875 30.25 -54.296875 C 35.289062 -54.296875 39.78125 -53.195312 43.71875 -51 C 47.664062 -48.800781 50.738281 -45.710938 52.9375 -41.734375 C 55.132812 -37.765625 56.234375 -33.195312 56.234375 -28.03125 Z M 44.703125 -31.515625 C 44.640625 -35.585938 43.1875 -38.851562 40.34375 -41.3125 C 37.5 -43.769531 33.972656 -45 29.765625 -45 C 25.953125 -45 22.6875 -43.785156 19.96875 -41.359375 C 17.257812 -38.929688 15.644531 -35.648438 15.125 -31.515625 Z M 44.703125 -31.515625 "/></g></g></g><g fill="#ffffff" fill-opacity="1"><g transform="translate(249.988598, 106.553096)"><g><path d="M 26.671875 0.875 C 22.460938 0.875 18.691406 0.113281 15.359375 -1.40625 C 12.035156 -2.925781 9.40625 -4.992188 7.46875 -7.609375 C 5.53125 -10.234375 4.492188 -13.160156 4.359375 -16.390625 L 15.8125 -16.390625 C 16 -14.128906 17.078125 -12.238281 19.046875 -10.71875 C 21.023438 -9.195312 23.5 -8.4375 26.46875 -8.4375 C 29.570312 -8.4375 31.976562 -9.035156 33.6875 -10.234375 C 35.40625 -11.429688 36.265625 -12.96875 36.265625 -14.84375 C 36.265625 -16.84375 35.3125 -18.328125 33.40625 -19.296875 C 31.5 -20.265625 28.476562 -21.332031 24.34375 -22.5 C 20.332031 -23.59375 17.066406 -24.65625 14.546875 -25.6875 C 12.023438 -26.726562 9.84375 -28.3125 8 -30.4375 C 6.15625 -32.570312 5.234375 -35.390625 5.234375 -38.890625 C 5.234375 -41.734375 6.070312 -44.332031 7.75 -46.6875 C 9.4375 -49.050781 11.847656 -50.910156 14.984375 -52.265625 C 18.117188 -53.617188 21.722656 -54.296875 25.796875 -54.296875 C 31.867188 -54.296875 36.765625 -52.757812 40.484375 -49.6875 C 44.203125 -46.625 46.191406 -42.441406 46.453125 -37.140625 L 35.390625 -37.140625 C 35.203125 -39.535156 34.234375 -41.441406 32.484375 -42.859375 C 30.734375 -44.285156 28.375 -45 25.40625 -45 C 22.5 -45 20.269531 -44.445312 18.71875 -43.34375 C 17.164062 -42.25 16.390625 -40.796875 16.390625 -38.984375 C 16.390625 -37.554688 16.90625 -36.359375 17.9375 -35.390625 C 18.96875 -34.421875 20.226562 -33.660156 21.71875 -33.109375 C 23.207031 -32.566406 25.40625 -31.875 28.3125 -31.03125 C 32.195312 -30 35.378906 -28.945312 37.859375 -27.875 C 40.347656 -26.8125 42.5 -25.242188 44.3125 -23.171875 C 46.125 -21.109375 47.0625 -18.363281 47.125 -14.9375 C 47.125 -11.894531 46.28125 -9.175781 44.59375 -6.78125 C 42.914062 -4.394531 40.539062 -2.519531 37.46875 -1.15625 C 34.40625 0.195312 30.804688 0.875 26.671875 0.875 Z M 26.671875 0.875 "/></g></g></g><g fill="#ffffff" fill-opacity="1"><g transform="translate(298.565778, 106.553096)"><g><path d="M 3.59375 -26.765625 C 3.59375 -32.253906 4.707031 -37.082031 6.9375 -41.25 C 9.164062 -45.425781 12.25 -48.644531 16.1875 -50.90625 C 20.132812 -53.164062 24.660156 -54.296875 29.765625 -54.296875 C 36.234375 -54.296875 41.582031 -52.757812 45.8125 -49.6875 C 50.050781 -46.625 52.914062 -42.25 54.40625 -36.5625 L 42.46875 -36.5625 C 41.5 -39.207031 39.945312 -41.273438 37.8125 -42.765625 C 35.6875 -44.253906 33.003906 -45 29.765625 -45 C 25.242188 -45 21.640625 -43.394531 18.953125 -40.1875 C 16.273438 -36.988281 14.9375 -32.515625 14.9375 -26.765625 C 14.9375 -21.015625 16.273438 -16.519531 18.953125 -13.28125 C 21.640625 -10.050781 25.242188 -8.4375 29.765625 -8.4375 C 36.171875 -8.4375 40.40625 -11.25 42.46875 -16.875 L 54.40625 -16.875 C 52.851562 -11.445312 49.941406 -7.128906 45.671875 -3.921875 C 41.398438 -0.722656 36.097656 0.875 29.765625 0.875 C 24.660156 0.875 20.132812 -0.269531 16.1875 -2.5625 C 12.25 -4.863281 9.164062 -8.097656 6.9375 -12.265625 C 4.707031 -16.429688 3.59375 -21.265625 3.59375 -26.765625 Z M 3.59375 -26.765625 "/></g></g></g><g fill="#ffffff" fill-opacity="1"><g transform="translate(353.542367, 106.553096)"><g><path d="M 55.65625 -53.4375 L 55.65625 0 L 44.609375 0 L 44.609375 -6.296875 C 42.859375 -4.097656 40.578125 -2.367188 37.765625 -1.109375 C 34.953125 0.148438 31.960938 0.78125 28.796875 0.78125 C 24.597656 0.78125 20.832031 -0.0859375 17.5 -1.828125 C 14.175781 -3.578125 11.554688 -6.164062 9.640625 -9.59375 C 7.734375 -13.019531 6.78125 -17.160156 6.78125 -22.015625 L 6.78125 -53.4375 L 17.75 -53.4375 L 17.75 -23.65625 C 17.75 -18.875 18.941406 -15.207031 21.328125 -12.65625 C 23.722656 -10.101562 26.988281 -8.828125 31.125 -8.828125 C 35.257812 -8.828125 38.539062 -10.101562 40.96875 -12.65625 C 43.394531 -15.207031 44.609375 -18.875 44.609375 -23.65625 L 44.609375 -53.4375 Z M 55.65625 -53.4375 "/></g></g></g><g fill="#ffffff" fill-opacity="1"><g transform="translate(413.270063, 106.553096)"><g><path d="M 56.234375 -28.03125 C 56.234375 -26.019531 56.109375 -24.207031 55.859375 -22.59375 L 15.03125 -22.59375 C 15.351562 -18.320312 16.9375 -14.894531 19.78125 -12.3125 C 22.625 -9.726562 26.113281 -8.4375 30.25 -8.4375 C 36.195312 -8.4375 40.398438 -10.925781 42.859375 -15.90625 L 54.78125 -15.90625 C 53.164062 -10.988281 50.238281 -6.960938 46 -3.828125 C 41.769531 -0.691406 36.519531 0.875 30.25 0.875 C 25.144531 0.875 20.570312 -0.269531 16.53125 -2.5625 C 12.488281 -4.863281 9.320312 -8.097656 7.03125 -12.265625 C 4.738281 -16.429688 3.59375 -21.265625 3.59375 -26.765625 C 3.59375 -32.253906 4.707031 -37.082031 6.9375 -41.25 C 9.164062 -45.425781 12.300781 -48.644531 16.34375 -50.90625 C 20.382812 -53.164062 25.019531 -54.296875 30.25 -54.296875 C 35.289062 -54.296875 39.78125 -53.195312 43.71875 -51 C 47.664062 -48.800781 50.738281 -45.710938 52.9375 -41.734375 C 55.132812 -37.765625 56.234375 -33.195312 56.234375 -28.03125 Z M 44.703125 -31.515625 C 44.640625 -35.585938 43.1875 -38.851562 40.34375 -41.3125 C 37.5 -43.769531 33.972656 -45 29.765625 -45 C 25.953125 -45 22.6875 -43.785156 19.96875 -41.359375 C 17.257812 -38.929688 15.644531 -35.648438 15.125 -31.515625 Z M 44.703125 -31.515625 "/></g></g></g><g fill="#ffffff" fill-opacity="1"><g transform="translate(469.894991, 106.553096)"><g><path d="M 34.234375 -54.296875 C 38.429688 -54.296875 42.191406 -53.421875 45.515625 -51.671875 C 48.847656 -49.929688 51.453125 -47.347656 53.328125 -43.921875 C 55.203125 -40.492188 56.140625 -36.359375 56.140625 -31.515625 L 56.140625 0 L 45.1875 0 L 45.1875 -29.859375 C 45.1875 -34.648438 43.988281 -38.320312 41.59375 -40.875 C 39.207031 -43.425781 35.945312 -44.703125 31.8125 -44.703125 C 27.664062 -44.703125 24.378906 -43.425781 21.953125 -40.875 C 19.535156 -38.320312 18.328125 -34.648438 18.328125 -29.859375 L 18.328125 0 L 7.265625 0 L 7.265625 -53.4375 L 18.328125 -53.4375 L 18.328125 -47.328125 C 20.140625 -49.523438 22.453125 -51.234375 25.265625 -52.453125 C 28.078125 -53.679688 31.066406 -54.296875 34.234375 -54.296875 Z M 34.234375 -54.296875 "/></g></g></g><g fill="#ffffff" fill-opacity="1"><g transform="translate(529.622664, 106.553096)"><g><path d="M 20.171875 -44.40625 L 20.171875 -14.84375 C 20.171875 -12.832031 20.640625 -11.390625 21.578125 -10.515625 C 22.515625 -9.648438 24.113281 -9.21875 26.375 -9.21875 L 33.15625 -9.21875 L 33.15625 0 L 24.4375 0 C 19.457031 0 15.640625 -1.160156 12.984375 -3.484375 C 10.335938 -5.816406 9.015625 -9.601562 9.015625 -14.84375 L 9.015625 -44.40625 L 2.71875 -44.40625 L 2.71875 -53.4375 L 9.015625 -53.4375 L 9.015625 -66.71875 L 20.171875 -66.71875 L 20.171875 -53.4375 L 33.15625 -53.4375 L 33.15625 -44.40625 Z M 20.171875 -44.40625 "/></g></g></g><g fill="#ffffff" fill-opacity="1"><g transform="translate(562.492199, 106.553096)"><g><path d="M 3.59375 -26.953125 C 3.59375 -32.316406 4.707031 -37.066406 6.9375 -41.203125 C 9.164062 -45.347656 12.203125 -48.566406 16.046875 -50.859375 C 19.890625 -53.148438 24.140625 -54.296875 28.796875 -54.296875 C 33.003906 -54.296875 36.675781 -53.472656 39.8125 -51.828125 C 42.945312 -50.179688 45.453125 -48.128906 47.328125 -45.671875 L 47.328125 -53.4375 L 58.46875 -53.4375 L 58.46875 0 L 47.328125 0 L 47.328125 -7.953125 C 45.453125 -5.429688 42.894531 -3.328125 39.65625 -1.640625 C 36.425781 0.0351562 32.742188 0.875 28.609375 0.875 C 24.015625 0.875 19.8125 -0.300781 16 -2.65625 C 12.1875 -5.019531 9.164062 -8.316406 6.9375 -12.546875 C 4.707031 -16.785156 3.59375 -21.585938 3.59375 -26.953125 Z M 47.328125 -26.765625 C 47.328125 -30.453125 46.566406 -33.648438 45.046875 -36.359375 C 43.523438 -39.078125 41.535156 -41.144531 39.078125 -42.5625 C 36.617188 -43.988281 33.96875 -44.703125 31.125 -44.703125 C 28.28125 -44.703125 25.628906 -44.003906 23.171875 -42.609375 C 20.710938 -41.222656 18.722656 -39.1875 17.203125 -36.5 C 15.691406 -33.820312 14.9375 -30.640625 14.9375 -26.953125 C 14.9375 -23.273438 15.691406 -20.046875 17.203125 -17.265625 C 18.722656 -14.484375 20.726562 -12.363281 23.21875 -10.90625 C 25.707031 -9.457031 28.34375 -8.734375 31.125 -8.734375 C 33.96875 -8.734375 36.617188 -9.441406 39.078125 -10.859375 C 41.535156 -12.285156 43.523438 -14.367188 45.046875 -17.109375 C 46.566406 -19.859375 47.328125 -23.078125 47.328125 -26.765625 Z M 47.328125 -26.765625 "/></g></g></g><g fill="#60ffe3" fill-opacity="1"><g transform="translate(625.038918, 106.553096)"><g><path d="M 71.953125 -54.296875 C 76.148438 -54.296875 79.910156 -53.421875 83.234375 -51.671875 C 86.566406 -49.929688 89.1875 -47.347656 91.09375 -43.921875 C 93.007812 -40.492188 93.96875 -36.359375 93.96875 -31.515625 L 93.96875 0 L 83 0 L 83 -29.859375 C 83 -34.648438 81.800781 -38.320312 79.40625 -40.875 C 77.019531 -43.425781 73.757812 -44.703125 69.625 -44.703125 C 65.488281 -44.703125 62.207031 -43.425781 59.78125 -40.875 C 57.351562 -38.320312 56.140625 -34.648438 56.140625 -29.859375 L 56.140625 0 L 45.1875 0 L 45.1875 -29.859375 C 45.1875 -34.648438 43.988281 -38.320312 41.59375 -40.875 C 39.207031 -43.425781 35.945312 -44.703125 31.8125 -44.703125 C 27.664062 -44.703125 24.378906 -43.425781 21.953125 -40.875 C 19.535156 -38.320312 18.328125 -34.648438 18.328125 -29.859375 L 18.328125 0 L 7.265625 0 L 7.265625 -53.4375 L 18.328125 -53.4375 L 18.328125 -47.328125 C 20.140625 -49.523438 22.429688 -51.234375 25.203125 -52.453125 C 27.984375 -53.679688 30.960938 -54.296875 34.140625 -54.296875 C 38.398438 -54.296875 42.210938 -53.390625 45.578125 -51.578125 C 48.941406 -49.773438 51.523438 -47.160156 53.328125 -43.734375 C 54.941406 -46.960938 57.460938 -49.53125 60.890625 -51.4375 C 64.316406 -53.34375 68.003906 -54.296875 71.953125 -54.296875 Z M 71.953125 -54.296875 "/></g></g></g><g fill="#60ffe3" fill-opacity="1"><g transform="translate(722.581381, 106.553096)"><g><path d="M 56.234375 -28.03125 C 56.234375 -26.019531 56.109375 -24.207031 55.859375 -22.59375 L 15.03125 -22.59375 C 15.351562 -18.320312 16.9375 -14.894531 19.78125 -12.3125 C 22.625 -9.726562 26.113281 -8.4375 30.25 -8.4375 C 36.195312 -8.4375 40.398438 -10.925781 42.859375 -15.90625 L 54.78125 -15.90625 C 53.164062 -10.988281 50.238281 -6.960938 46 -3.828125 C 41.769531 -0.691406 36.519531 0.875 30.25 0.875 C 25.144531 0.875 20.570312 -0.269531 16.53125 -2.5625 C 12.488281 -4.863281 9.320312 -8.097656 7.03125 -12.265625 C 4.738281 -16.429688 3.59375 -21.265625 3.59375 -26.765625 C 3.59375 -32.253906 4.707031 -37.082031 6.9375 -41.25 C 9.164062 -45.425781 12.300781 -48.644531 16.34375 -50.90625 C 20.382812 -53.164062 25.019531 -54.296875 30.25 -54.296875 C 35.289062 -54.296875 39.78125 -53.195312 43.71875 -51 C 47.664062 -48.800781 50.738281 -45.710938 52.9375 -41.734375 C 55.132812 -37.765625 56.234375 -33.195312 56.234375 -28.03125 Z M 44.703125 -31.515625 C 44.640625 -35.585938 43.1875 -38.851562 40.34375 -41.3125 C 37.5 -43.769531 33.972656 -45 29.765625 -45 C 25.953125 -45 22.6875 -43.785156 19.96875 -41.359375 C 17.257812 -38.929688 15.644531 -35.648438 15.125 -31.515625 Z M 44.703125 -31.515625 "/></g></g></g></svg>