<svg xmlns="http://www.w3.org/2000/svg" xmlns:xlink="http://www.w3.org/1999/xlink" width="2000" zoomAndPan="magnify" viewBox="0 0 1500 1499.999933" height="2000" preserveAspectRatio="xMidYMid meet" version="1.0"><defs><clipPath id="6c40f9f5b0"><path d="M 86.957031 90.21875 L 1413 90.21875 L 1413 1409.78125 L 86.957031 1409.78125 Z M 86.957031 90.21875 " clip-rule="nonzero"/></clipPath><clipPath id="b243522e3a"><path d="M 1412.988281 165.214844 L 1412.988281 1334.785156 C 1412.988281 1354.675781 1405.089844 1373.75 1391.023438 1387.816406 C 1376.960938 1401.882812 1357.882812 1409.78125 1337.992188 1409.78125 L 161.953125 1409.78125 C 142.0625 1409.78125 122.988281 1401.882812 108.921875 1387.816406 C 94.859375 1373.75 86.957031 1354.675781 86.957031 1334.785156 L 86.957031 165.214844 C 86.957031 145.324219 94.859375 126.25 108.921875 112.183594 C 122.988281 98.117188 142.0625 90.21875 161.953125 90.21875 L 1337.992188 90.21875 C 1357.882812 90.21875 1376.960938 98.117188 1391.023438 112.183594 C 1405.089844 126.25 1412.988281 145.324219 1412.988281 165.214844 Z M 1412.988281 165.214844 " clip-rule="nonzero"/></clipPath><clipPath id="194b5c40c1"><path d="M 0.957031 0.21875 L 1326 0.21875 L 1326 1319.78125 L 0.957031 1319.78125 Z M 0.957031 0.21875 " clip-rule="nonzero"/></clipPath><clipPath id="38758ad54a"><path d="M 1326.988281 75.214844 L 1326.988281 1244.785156 C 1326.988281 1264.675781 1319.089844 1283.75 1305.023438 1297.816406 C 1290.960938 1311.882812 1271.882812 1319.78125 1251.992188 1319.78125 L 75.953125 1319.78125 C 56.0625 1319.78125 36.988281 1311.882812 22.921875 1297.816406 C 8.859375 1283.75 0.957031 1264.675781 0.957031 1244.785156 L 0.957031 75.214844 C 0.957031 55.324219 8.859375 36.25 22.921875 22.183594 C 36.988281 8.117188 56.0625 0.21875 75.953125 0.21875 L 1251.992188 0.21875 C 1271.882812 0.21875 1290.960938 8.117188 1305.023438 22.183594 C 1319.089844 36.25 1326.988281 55.324219 1326.988281 75.214844 Z M 1326.988281 75.214844 " clip-rule="nonzero"/></clipPath><clipPath id="c71c0e36c1"><rect x="0" width="1327" y="0" height="1320"/></clipPath><clipPath id="daa7e71c40"><path d="M 246 65 L 940 65 L 940 999 L 246 999 Z M 246 65 " clip-rule="nonzero"/></clipPath><clipPath id="44054372a0"><path d="M 701.683594 0.976562 L 1004.277344 179.09375 L 483.839844 1063.238281 L 181.246094 885.121094 Z M 701.683594 0.976562 " clip-rule="nonzero"/></clipPath><clipPath id="34f369395d"><path d="M 852.980469 90.035156 C 893.105469 113.65625 922.207031 152.25 933.878906 197.324219 C 945.550781 242.398438 938.839844 290.265625 915.21875 330.390625 L 573.125 911.558594 C 549.503906 951.683594 510.910156 980.785156 465.835938 992.457031 C 420.761719 1004.128906 372.894531 997.414062 332.769531 973.796875 C 292.640625 950.175781 263.542969 911.582031 251.871094 866.507812 C 240.199219 821.429688 246.910156 773.566406 270.53125 733.4375 L 612.625 152.273438 C 636.246094 112.148438 674.835938 83.046875 719.914062 71.375 C 764.988281 59.703125 812.855469 66.417969 852.980469 90.035156 Z M 852.980469 90.035156 " clip-rule="nonzero"/></clipPath><clipPath id="280a9ac580"><path d="M 0 0 L 694 0 L 694 934 L 0 934 Z M 0 0 " clip-rule="nonzero"/></clipPath><clipPath id="e9ce74deb8"><path d="M 455.683594 -64.023438 L 758.277344 114.09375 L 237.839844 998.238281 L -64.753906 820.121094 Z M 455.683594 -64.023438 " clip-rule="nonzero"/></clipPath><clipPath id="549f5e3782"><path d="M 606.980469 25.035156 C 647.105469 48.65625 676.207031 87.25 687.878906 132.324219 C 699.550781 177.398438 692.839844 225.265625 669.21875 265.390625 L 327.125 846.558594 C 303.503906 886.683594 264.910156 915.785156 219.835938 927.457031 C 174.761719 939.128906 126.894531 932.414062 86.769531 908.796875 C 46.640625 885.175781 17.542969 846.582031 5.871094 801.507812 C -5.800781 756.429688 0.910156 708.566406 24.53125 668.4375 L 366.625 87.273438 C 390.246094 47.148438 428.835938 18.046875 473.914062 6.375 C 518.988281 -5.296875 566.855469 1.417969 606.980469 25.035156 Z M 606.980469 25.035156 " clip-rule="nonzero"/></clipPath><clipPath id="b420628771"><rect x="0" width="694" y="0" height="934"/></clipPath><clipPath id="c80c405b11"><path d="M 0.609375 54.292969 L 362.355469 54.292969 L 362.355469 416.039062 L 0.609375 416.039062 Z M 0.609375 54.292969 " clip-rule="nonzero"/></clipPath><clipPath id="0020e36330"><path d="M 181.480469 54.292969 C 81.589844 54.292969 0.609375 135.273438 0.609375 235.164062 C 0.609375 335.058594 81.589844 416.039062 181.480469 416.039062 C 281.375 416.039062 362.355469 335.058594 362.355469 235.164062 C 362.355469 135.273438 281.375 54.292969 181.480469 54.292969 Z M 181.480469 54.292969 " clip-rule="nonzero"/></clipPath><clipPath id="8b49367490"><path d="M 0.609375 0.292969 L 362.355469 0.292969 L 362.355469 362.039062 L 0.609375 362.039062 Z M 0.609375 0.292969 " clip-rule="nonzero"/></clipPath><clipPath id="4e4a749e64"><path d="M 181.480469 0.292969 C 81.589844 0.292969 0.609375 81.273438 0.609375 181.164062 C 0.609375 281.058594 81.589844 362.039062 181.480469 362.039062 C 281.375 362.039062 362.355469 281.058594 362.355469 181.164062 C 362.355469 81.273438 281.375 0.292969 181.480469 0.292969 Z M 181.480469 0.292969 " clip-rule="nonzero"/></clipPath><clipPath id="80441190a8"><rect x="0" width="363" y="0" height="363"/></clipPath><clipPath id="f6c79cfafa"><path d="M 810.507812 637.136719 L 1172.253906 637.136719 L 1172.253906 998.882812 L 810.507812 998.882812 Z M 810.507812 637.136719 " clip-rule="nonzero"/></clipPath><clipPath id="bac8a17f64"><path d="M 991.382812 637.136719 C 891.488281 637.136719 810.507812 718.117188 810.507812 818.007812 C 810.507812 917.902344 891.488281 998.882812 991.382812 998.882812 C 1091.273438 998.882812 1172.253906 917.902344 1172.253906 818.007812 C 1172.253906 718.117188 1091.273438 637.136719 991.382812 637.136719 Z M 991.382812 637.136719 " clip-rule="nonzero"/></clipPath><clipPath id="c8ac0c59b5"><path d="M 0.507812 0.136719 L 362.253906 0.136719 L 362.253906 361.882812 L 0.507812 361.882812 Z M 0.507812 0.136719 " clip-rule="nonzero"/></clipPath><clipPath id="e3482c91ac"><path d="M 181.382812 0.136719 C 81.488281 0.136719 0.507812 81.117188 0.507812 181.007812 C 0.507812 280.902344 81.488281 361.882812 181.382812 361.882812 C 281.273438 361.882812 362.253906 280.902344 362.253906 181.007812 C 362.253906 81.117188 281.273438 0.136719 181.382812 0.136719 Z M 181.382812 0.136719 " clip-rule="nonzero"/></clipPath><clipPath id="bba0bd9035"><rect x="0" width="363" y="0" height="362"/></clipPath><clipPath id="19577bed59"><rect x="0" width="1173" y="0" height="1064"/></clipPath></defs><g clip-path="url(#6c40f9f5b0)"><g clip-path="url(#b243522e3a)"><g transform="matrix(1, 0, 0, 1, 86, 90)"><g clip-path="url(#c71c0e36c1)"><g clip-path="url(#194b5c40c1)"><g clip-path="url(#38758ad54a)"><path fill="#000000" d="M 0.957031 0.21875 L 1325.675781 0.21875 L 1325.675781 1319.78125 L 0.957031 1319.78125 Z M 0.957031 0.21875 " fill-opacity="1" fill-rule="nonzero"/></g></g></g></g></g></g><g transform="matrix(1, 0, 0, 1, 157, 242)"><g clip-path="url(#19577bed59)"><g clip-path="url(#daa7e71c40)"><g clip-path="url(#44054372a0)"><g clip-path="url(#34f369395d)"><g transform="matrix(1, 0, 0, 1, 246, 65)"><g clip-path="url(#b420628771)"><g clip-path="url(#280a9ac580)"><g clip-path="url(#e9ce74deb8)"><g clip-path="url(#549f5e3782)"><path fill="#61ffe3" d="M 455.683594 -64.023438 L 758.277344 114.09375 L 237.839844 998.238281 L -64.753906 820.121094 Z M 455.683594 -64.023438 " fill-opacity="1" fill-rule="nonzero"/></g></g></g></g></g></g></g></g><g clip-path="url(#c80c405b11)"><g clip-path="url(#0020e36330)"><g transform="matrix(1, 0, 0, 1, 0, 54)"><g clip-path="url(#80441190a8)"><g clip-path="url(#8b49367490)"><g clip-path="url(#4e4a749e64)"><path fill="#61ffe3" d="M 0.609375 0.292969 L 362.355469 0.292969 L 362.355469 362.039062 L 0.609375 362.039062 Z M 0.609375 0.292969 " fill-opacity="1" fill-rule="nonzero"/></g></g></g></g></g></g><g clip-path="url(#f6c79cfafa)"><g clip-path="url(#bac8a17f64)"><g transform="matrix(1, 0, 0, 1, 810, 637)"><g clip-path="url(#bba0bd9035)"><g clip-path="url(#c8ac0c59b5)"><g clip-path="url(#e3482c91ac)"><path fill="#61ffe3" d="M 0.507812 0.136719 L 362.253906 0.136719 L 362.253906 361.882812 L 0.507812 361.882812 Z M 0.507812 0.136719 " fill-opacity="1" fill-rule="nonzero"/></g></g></g></g></g></g></g></g></svg>